<?xml version="1.0" encoding="iso-8859-1"?>
<!-- Uploaded to: SVG Repo, www.svgrepo.com, Generator: SVG Repo Mixer Tools -->
<svg fill="#000000" height="800px" width="800px" version="1.1" id="Layer_1" xmlns="http://www.w3.org/2000/svg" xmlns:xlink="http://www.w3.org/1999/xlink" 
	 viewBox="0 0 512 512" xml:space="preserve">
<g>
	<g>
		<g>
			<path d="M73.237,341.312l-50.539-0.021c3.797-14.379,15.125-25.92,30.101-29.675l42.069-10.517
				c3.819-0.939,6.805-3.925,7.765-7.744l4.352-17.408c0.725-2.923,0.192-6.037-1.515-8.555c-1.685-2.496-4.373-4.16-7.381-4.587
				c-12.992-1.813-22.933-4.565-29.803-6.955c6.763-11.648,14.251-32.405,14.251-67.115c0-49.941,36.437-60.757,45.461-60.757
				c10.389,0,12.181,1.685,16.064,5.312c4.288,4.032,11.029,3.84,15.083-0.448c4.053-4.288,3.84-11.051-0.448-15.083
				c-8.853-8.32-16.597-11.136-30.699-11.136c-20.928,0-66.795,20.672-66.795,82.091c0,48.576-16.149,62.891-16.128,62.891
				c-2.859,2.133-4.437,5.525-4.245,9.088c0.171,3.541,2.091,6.763,5.141,8.597c0.619,0.363,13.205,7.808,37.525,12.651
				l-35.861,8.981C19.584,297.941,0,323.051,0,351.979c0,5.888,4.779,10.667,10.667,10.667h62.571
				c5.888,0,10.667-4.779,10.667-10.667S79.125,341.312,73.237,341.312z"/>
			<path d="M464.363,290.923l-35.861-8.96v-0.043c24.149-4.843,36.864-12.224,37.461-12.587c2.944-1.749,4.757-4.928,5.056-8.384
				c0.277-3.435-1.237-6.912-3.861-9.131c-0.171-0.128-16.384-14.421-16.384-63.083c0-47.701-12.16-71.872-36.181-71.872h-0.811
				c-7.872-7.168-14.827-10.219-29.781-10.219c-6.293,0-14.656,2.219-22.955,6.123c-5.333,2.496-7.637,8.853-5.141,14.187
				c2.517,5.333,8.896,7.595,14.187,5.12c6.933-3.243,12.117-4.096,13.909-4.096c10.88,0,12.245,1.344,17.941,7.083
				c2.005,1.984,4.715,3.115,7.552,3.115h5.099c9.152,0,14.848,19.371,14.848,50.539c0,34.688,7.467,55.424,14.229,67.072
				c-6.891,2.411-16.875,5.163-29.803,6.976c-3.008,0.405-5.675,2.091-7.36,4.587c-1.707,2.517-2.24,5.611-1.515,8.555l4.352,17.429
				c0.96,3.819,3.925,6.827,7.765,7.765l42.069,10.517c14.976,3.755,26.304,15.296,30.101,29.696h-50.496v21.333l62.549-0.021
				c5.888,0,10.667-4.779,10.667-10.667C512,323.029,492.416,297.941,464.363,290.923z"/>
			<path d="M364.608,336.512l-51.136-12.779l-1.557-6.293c34.859-6.421,53.035-16.981,53.845-17.472
				c2.987-1.771,4.864-4.971,5.12-8.448c0.256-3.477-1.28-6.933-3.989-9.131c-0.213-0.192-23.723-20.203-23.723-88.981
				c0-62.464-15.296-94.144-45.461-94.144h-2.603c-10.027-9.451-18.475-13.909-39.125-13.909c-27.307,0-87.189,27.2-87.189,108.053
				c0,68.779-23.488,88.789-23.552,88.853c-2.837,2.112-4.437,5.525-4.245,9.067c0.171,3.541,2.091,6.763,5.141,8.597
				c0.832,0.491,18.816,11.115,53.909,17.536l-1.536,6.251l-51.136,12.779c-36.523,9.131-62.037,41.813-62.037,79.488
				c0,2.837,1.109,5.568,3.115,7.552s4.715,3.115,7.552,3.115h319.979c5.888,0,10.667-4.779,10.667-10.667
				C426.645,378.304,401.131,345.643,364.608,336.512z M107.605,405.291c4.117-23.189,21.44-42.24,44.949-48.107l57.344-14.336
				c3.819-0.96,6.805-3.947,7.765-7.765l5.909-23.744c0.725-2.944,0.192-6.059-1.515-8.555c-1.685-2.496-4.373-4.16-7.381-4.587
				c-20.992-2.923-36.309-7.659-45.824-11.307c9.365-14.229,21.291-42.389,21.291-93.525c0-71.275,52.8-86.72,65.856-86.72
				c15.808,0,18.688,2.24,27.264,10.795c2.005,1.984,4.715,3.115,7.552,3.115h6.933c15.339,0,24.128,26.539,24.128,72.811
				c0,51.093,11.883,79.232,21.248,93.483c-9.579,3.669-24.939,8.405-45.824,11.328c-3.008,0.405-5.675,2.091-7.36,4.587
				c-1.707,2.517-2.24,5.632-1.515,8.555l5.931,23.765c0.96,3.819,3.925,6.827,7.765,7.765l57.344,14.336
				c23.488,5.867,40.832,24.939,44.928,48.128L107.605,405.291z"/>
		</g>
	</g>
</g>
</svg>