<?xml version="1.0" encoding="iso-8859-1"?>
<!-- Uploaded to: SVG Repo, www.svgrepo.com, Generator: SVG Repo Mixer Tools -->
<svg fill="#000000" height="800px" width="800px" version="1.1" id="Layer_1" xmlns="http://www.w3.org/2000/svg" xmlns:xlink="http://www.w3.org/1999/xlink" 
	 viewBox="0 0 512 512" xml:space="preserve">
<g>
	<g>
		<g>
			<path d="M341.333,405.333c5.888,0,10.667-4.779,10.667-10.667S347.221,384,341.333,384H256c-5.888,0-10.667,4.779-10.667,10.667
				s4.779,10.667,10.667,10.667H341.333z"/>
			<path d="M384,426.667H213.333c-5.888,0-10.667,4.779-10.667,10.667c0,5.888,4.779,10.667,10.667,10.667H384
				c5.888,0,10.667-4.779,10.667-10.667C394.667,431.445,389.888,426.667,384,426.667z"/>
			<path d="M384,341.333H213.333c-5.888,0-10.667,4.779-10.667,10.667c0,5.888,4.779,10.667,10.667,10.667H384
				c5.888,0,10.667-4.779,10.667-10.667C394.667,346.112,389.888,341.333,384,341.333z"/>
			<path d="M371.968,231.531l-32.021-8l-1.344-5.355c8.299-9.173,14.208-20.885,16.661-33.045
				c5.696-2.944,9.813-8.533,10.667-15.253l2.304-18.56c0.704-5.632-1.024-11.307-4.757-15.573
				c-1.152-1.301-2.475-2.453-3.883-3.413l0.533-11.328l1.941-1.941c5.504-5.845,12.949-18.325,1.173-36.331
				c-5.589-8.555-17.109-18.752-40.192-18.752c-6.784,0-22.123,0-37.013,9.344c-43.904,1.557-49.067,25.216-49.067,43.072
				c0,3.52,0.64,10.112,1.237,15.616c-1.579,1.003-3.029,2.24-4.288,3.669c-3.797,4.309-5.547,10.005-4.821,15.659l2.304,18.56
				c0.875,6.955,5.291,12.715,11.797,15.552c2.389,11.627,7.979,22.891,15.765,31.829l-1.557,6.272l-32.021,8
				c-25.92,6.485-44.053,29.696-44.053,56.448c0,2.837,1.109,5.568,3.115,7.552s4.715,3.115,7.552,3.115l213.355-0.043
				c5.888,0,10.667-4.779,10.667-10.667C416.021,261.205,397.909,238.016,371.968,231.531z M204.224,277.312
				c3.669-12.16,13.504-21.845,26.389-25.088l38.229-9.557c3.819-0.96,6.805-3.947,7.765-7.765l4.544-18.197
				c0.939-3.755-0.235-7.723-3.072-10.368c-8.299-7.808-13.803-19.221-14.699-30.528c-0.448-5.525-5.184-8.597-10.752-8.597
				l-2.752-16.981c3.072,0,5.973-1.301,8-3.605c2.027-2.283,2.965-5.333,2.581-8.384c-0.811-6.443-2.112-18.091-2.112-21.845
				c0-11.051,0-21.483,31.189-21.803c2.176-0.021,4.309-0.704,6.101-1.984c10.155-7.275,21.845-7.275,27.456-7.275
				c11.029,0,18.325,2.965,22.336,9.088c4.331,6.635,2.56,8.512,1.365,9.813l-4.629,4.629c-1.877,1.877-2.987,4.373-3.115,7.019
				l-1.131,23.211c-0.128,2.901,0.213,4.928,2.197,7.04c2.005,2.112,4.053,2.539,6.955,2.56l-1.365,17.344
				c-5.568,0-10.176,4.267-10.624,9.813c-0.939,11.499-6.848,23.424-15.424,31.125c-2.923,2.624-4.181,6.677-3.221,10.517
				l4.352,17.429c0.96,3.819,3.925,6.827,7.765,7.765l38.229,9.557c12.843,3.221,22.656,12.907,26.325,25.088L204.224,277.312z"/>
			<path d="M448,0H85.333c-17.643,0-32,14.357-32,32v53.333H42.667C36.779,85.333,32,90.112,32,96s4.779,10.667,10.667,10.667
				h10.667V192H42.667C36.779,192,32,196.779,32,202.667s4.779,10.667,10.667,10.667h10.667v85.333H42.667
				c-5.888,0-10.667,4.779-10.667,10.667S36.779,320,42.667,320h10.667v85.333H42.667C36.779,405.333,32,410.112,32,416
				c0,5.888,4.779,10.667,10.667,10.667h10.667V480c0,17.643,14.357,32,32,32H448c17.643,0,32-14.357,32-32V32
				C480,14.357,465.643,0,448,0z M458.667,480c0,5.888-4.8,10.667-10.667,10.667H85.333c-5.867,0-10.667-4.779-10.667-10.667
				v-53.333h23.296C102.379,439.061,114.112,448,128,448c17.643,0,32-14.357,32-32c0-17.643-14.357-32-32-32
				c-13.888,0-25.621,8.939-30.037,21.333H74.667V320h23.296c4.416,12.395,16.149,21.333,30.037,21.333c17.643,0,32-14.357,32-32
				c0-17.643-14.357-32-32-32c-13.888,0-25.621,8.939-30.037,21.333H74.667v-85.333h23.296
				c4.416,12.395,16.149,21.333,30.037,21.333c17.643,0,32-14.357,32-32c0-17.643-14.357-32-32-32
				c-13.888,0-25.621,8.939-30.037,21.333H74.667v-85.333h23.296C102.379,119.061,114.112,128,128,128c17.643,0,32-14.357,32-32
				c0-17.643-14.357-32-32-32c-13.888,0-25.621,8.939-30.037,21.333H74.667V32c0-5.888,4.8-10.667,10.667-10.667H448
				c5.867,0,10.667,4.779,10.667,10.667V480z M117.333,416c0-5.888,4.8-10.667,10.667-10.667c5.867,0,10.667,4.779,10.667,10.667
				c0,5.888-4.8,10.667-10.667,10.667C122.133,426.667,117.333,421.888,117.333,416z M117.333,309.333
				c0-5.888,4.8-10.667,10.667-10.667c5.867,0,10.667,4.779,10.667,10.667S133.867,320,128,320
				C122.133,320,117.333,315.221,117.333,309.333z M117.333,202.667c0-5.888,4.8-10.667,10.667-10.667
				c5.867,0,10.667,4.779,10.667,10.667s-4.8,10.667-10.667,10.667C122.133,213.333,117.333,208.555,117.333,202.667z M117.333,96
				c0-5.888,4.8-10.667,10.667-10.667c5.867,0,10.667,4.779,10.667,10.667s-4.8,10.667-10.667,10.667
				C122.133,106.667,117.333,101.888,117.333,96z"/>
		</g>
	</g>
</g>
</svg>